<?xml version="1.0" encoding="UTF-8"?>
<!DOCTYPE svg PUBLIC "-//W3C//DTD SVG 1.1//EN" "http://www.w3.org/Graphics/SVG/1.1/DTD/svg11.dtd">
<svg xmlns="http://www.w3.org/2000/svg" version="1.1" width="589px" height="179px" style="shape-rendering:geometricPrecision; text-rendering:geometricPrecision; image-rendering:optimizeQuality; fill-rule:evenodd; clip-rule:evenodd" xmlns:xlink="http://www.w3.org/1999/xlink">
<g><path style="opacity:1" fill="#000000" d="M 28.5,10.5 C 44.1667,10.5 59.8333,10.5 75.5,10.5C 75.5,13.5 75.5,16.5 75.5,19.5C 78.1667,19.5 80.8333,19.5 83.5,19.5C 83.5,22.1667 83.5,24.8333 83.5,27.5C 86.1667,27.5 88.8333,27.5 91.5,27.5C 91.5,61.1667 91.5,94.8333 91.5,128.5C 88.8333,128.5 86.1667,128.5 83.5,128.5C 83.5,131.167 83.5,133.833 83.5,136.5C 80.8333,136.5 78.1667,136.5 75.5,136.5C 75.5,139.5 75.5,142.5 75.5,145.5C 59.8333,145.5 44.1667,145.5 28.5,145.5C 28.5,142.5 28.5,139.5 28.5,136.5C 25.8333,136.5 23.1667,136.5 20.5,136.5C 20.5,133.833 20.5,131.167 20.5,128.5C 17.8333,128.5 15.1667,128.5 12.5,128.5C 12.5,94.8333 12.5,61.1667 12.5,27.5C 15.1667,27.5 17.8333,27.5 20.5,27.5C 20.5,24.8333 20.5,22.1667 20.5,19.5C 23.1667,19.5 25.8333,19.5 28.5,19.5C 28.5,16.5 28.5,13.5 28.5,10.5 Z M 37.5,27.5 C 47.1667,27.5 56.8333,27.5 66.5,27.5C 66.5,61.1667 66.5,94.8333 66.5,128.5C 56.8333,128.5 47.1667,128.5 37.5,128.5C 37.5,94.8333 37.5,61.1667 37.5,27.5 Z"/></g>
<g><path style="opacity:1" fill="#000000" d="M 143.5,10.5 C 151.833,10.5 160.167,10.5 168.5,10.5C 168.5,13.5 168.5,16.5 168.5,19.5C 178.5,19.5 188.5,19.5 198.5,19.5C 198.5,22.1667 198.5,24.8333 198.5,27.5C 201.167,27.5 203.833,27.5 206.5,27.5C 206.5,30.5 206.5,33.5 206.5,36.5C 209.167,36.5 211.833,36.5 214.5,36.5C 214.5,67.1667 214.5,97.8333 214.5,128.5C 211.833,128.5 209.167,128.5 206.5,128.5C 206.5,131.167 206.5,133.833 206.5,136.5C 203.833,136.5 201.167,136.5 198.5,136.5C 198.5,139.5 198.5,142.5 198.5,145.5C 195.5,145.5 192.5,145.5 189.5,145.5C 189.5,108.833 189.5,72.1667 189.5,35.5C 182.5,35.5 175.5,35.5 168.5,35.5C 168.5,72.1667 168.5,108.833 168.5,145.5C 160.167,145.5 151.833,145.5 143.5,145.5C 143.5,108.833 143.5,72.1667 143.5,35.5C 136.167,35.5 128.833,35.5 121.5,35.5C 121.5,72.1667 121.5,108.833 121.5,145.5C 118.5,145.5 115.5,145.5 112.5,145.5C 112.5,142.5 112.5,139.5 112.5,136.5C 110.167,136.5 107.833,136.5 105.5,136.5C 105.5,133.833 105.5,131.167 105.5,128.5C 102.833,128.5 100.167,128.5 97.5,128.5C 97.5,97.8333 97.5,67.1667 97.5,36.5C 100.167,36.5 102.833,36.5 105.5,36.5C 105.5,33.5 105.5,30.5 105.5,27.5C 107.833,27.5 110.167,27.5 112.5,27.5C 112.5,24.8333 112.5,22.1667 112.5,19.5C 122.833,19.5 133.167,19.5 143.5,19.5C 143.5,16.5 143.5,13.5 143.5,10.5 Z"/></g>
<g><path style="opacity:1" fill="#000000" d="M 251.5,10.5 C 272.5,10.5 293.5,10.5 314.5,10.5C 314.5,49.8333 314.5,89.1667 314.5,128.5C 311.833,128.5 309.167,128.5 306.5,128.5C 306.5,131.167 306.5,133.833 306.5,136.5C 303.833,136.5 301.167,136.5 298.5,136.5C 298.5,139.5 298.5,142.5 298.5,145.5C 295.5,145.5 292.5,145.5 289.5,145.5C 289.5,128.833 289.5,112.167 289.5,95.5C 279.833,95.5 270.167,95.5 260.5,95.5C 260.5,112.167 260.5,128.833 260.5,145.5C 252.5,145.5 244.5,145.5 236.5,145.5C 236.5,128.833 236.5,112.167 236.5,95.5C 233.833,95.5 231.167,95.5 228.5,95.5C 228.5,92.5 228.5,89.5 228.5,86.5C 225.833,86.5 223.167,86.5 220.5,86.5C 220.5,83.8333 220.5,81.1667 220.5,78.5C 225.833,78.5 231.167,78.5 236.5,78.5C 236.5,61.5 236.5,44.5 236.5,27.5C 238.833,27.5 241.167,27.5 243.5,27.5C 243.5,24.8333 243.5,22.1667 243.5,19.5C 246.167,19.5 248.833,19.5 251.5,19.5C 251.5,16.5 251.5,13.5 251.5,10.5 Z M 260.5,27.5 C 270.167,27.5 279.833,27.5 289.5,27.5C 289.5,44.5 289.5,61.5 289.5,78.5C 279.833,78.5 270.167,78.5 260.5,78.5C 260.5,61.5 260.5,44.5 260.5,27.5 Z"/></g>
<g><path style="opacity:1" fill="#000000" d="M 320.5,10.5 C 328.833,10.5 337.167,10.5 345.5,10.5C 345.5,13.5 345.5,16.5 345.5,19.5C 355.5,19.5 365.5,19.5 375.5,19.5C 375.5,22.1667 375.5,24.8333 375.5,27.5C 378.167,27.5 380.833,27.5 383.5,27.5C 383.5,30.5 383.5,33.5 383.5,36.5C 386.167,36.5 388.833,36.5 391.5,36.5C 391.5,67.1667 391.5,97.8333 391.5,128.5C 388.833,128.5 386.167,128.5 383.5,128.5C 383.5,131.167 383.5,133.833 383.5,136.5C 380.833,136.5 378.167,136.5 375.5,136.5C 375.5,139.5 375.5,142.5 375.5,145.5C 372.5,145.5 369.5,145.5 366.5,145.5C 366.5,108.833 366.5,72.1667 366.5,35.5C 359.5,35.5 352.5,35.5 345.5,35.5C 345.5,72.1667 345.5,108.833 345.5,145.5C 342.5,145.5 339.5,145.5 336.5,145.5C 336.5,142.5 336.5,139.5 336.5,136.5C 333.833,136.5 331.167,136.5 328.5,136.5C 328.5,133.833 328.5,131.167 328.5,128.5C 325.833,128.5 323.167,128.5 320.5,128.5C 320.5,89.1667 320.5,49.8333 320.5,10.5 Z"/></g>
<g><path style="opacity:1" fill="#000000" d="M 413.5,10.5 C 416.5,10.5 419.5,10.5 422.5,10.5C 422.5,21.8333 422.5,33.1667 422.5,44.5C 423.833,44.5 425.167,44.5 426.5,44.5C 426.5,61.5 426.5,78.5 426.5,95.5C 425.167,95.5 423.833,95.5 422.5,95.5C 422.5,106.5 422.5,117.5 422.5,128.5C 419.833,128.5 417.167,128.5 414.5,128.5C 414.5,131.167 414.5,133.833 414.5,136.5C 411.833,136.5 409.167,136.5 406.5,136.5C 406.5,139.5 406.5,142.5 406.5,145.5C 403.5,145.5 400.5,145.5 397.5,145.5C 397.5,106.167 397.5,66.8333 397.5,27.5C 400.167,27.5 402.833,27.5 405.5,27.5C 405.5,24.8333 405.5,22.1667 405.5,19.5C 408.167,19.5 410.833,19.5 413.5,19.5C 413.5,16.5 413.5,13.5 413.5,10.5 Z"/></g>
<g><path style="opacity:1" fill="#000000" d="M 467.5,10.5 C 488.167,10.5 508.833,10.5 529.5,10.5C 529.5,30.1667 529.5,49.8333 529.5,69.5C 527.167,69.5 524.833,69.5 522.5,69.5C 522.5,72.5 522.5,75.5 522.5,78.5C 519.833,78.5 517.167,78.5 514.5,78.5C 514.5,81.1667 514.5,83.8333 514.5,86.5C 501.833,86.5 489.167,86.5 476.5,86.5C 476.5,89.1667 476.5,91.8333 476.5,94.5C 494.167,94.5 511.833,94.5 529.5,94.5C 529.5,117.167 529.5,139.833 529.5,162.5C 521.5,162.5 513.5,162.5 505.5,162.5C 505.5,145.5 505.5,128.5 505.5,111.5C 495.833,111.5 486.167,111.5 476.5,111.5C 476.5,128.5 476.5,145.5 476.5,162.5C 468.167,162.5 459.833,162.5 451.5,162.5C 451.5,145.5 451.5,128.5 451.5,111.5C 448.833,111.5 446.167,111.5 443.5,111.5C 443.5,108.5 443.5,105.5 443.5,102.5C 441.167,102.5 438.833,102.5 436.5,102.5C 436.5,99.8333 436.5,97.1667 436.5,94.5C 441.5,94.5 446.5,94.5 451.5,94.5C 451.5,91.8333 451.5,89.1667 451.5,86.5C 446.5,86.5 441.5,86.5 436.5,86.5C 436.5,83.8333 436.5,81.1667 436.5,78.5C 438.833,78.5 441.167,78.5 443.5,78.5C 443.5,75.8333 443.5,73.1667 443.5,70.5C 446.167,70.5 448.833,70.5 451.5,70.5C 451.5,56.1667 451.5,41.8333 451.5,27.5C 454.167,27.5 456.833,27.5 459.5,27.5C 459.5,24.8333 459.5,22.1667 459.5,19.5C 462.167,19.5 464.833,19.5 467.5,19.5C 467.5,16.5 467.5,13.5 467.5,10.5 Z M 476.5,27.5 C 486.167,27.5 495.833,27.5 505.5,27.5C 505.5,41.8333 505.5,56.1667 505.5,70.5C 495.833,70.5 486.167,70.5 476.5,70.5C 476.5,56.1667 476.5,41.8333 476.5,27.5 Z"/></g>
<g><path style="opacity:1" fill="#000000" d="M 551.5,10.5 C 554.5,10.5 557.5,10.5 560.5,10.5C 560.5,21.8333 560.5,33.1667 560.5,44.5C 561.833,44.5 563.167,44.5 564.5,44.5C 564.5,61.5 564.5,78.5 564.5,95.5C 563.167,95.5 561.833,95.5 560.5,95.5C 560.5,106.5 560.5,117.5 560.5,128.5C 557.833,128.5 555.167,128.5 552.5,128.5C 552.5,131.167 552.5,133.833 552.5,136.5C 550.167,136.5 547.833,136.5 545.5,136.5C 545.5,139.5 545.5,142.5 545.5,145.5C 542.5,145.5 539.5,145.5 536.5,145.5C 536.5,106.167 536.5,66.8333 536.5,27.5C 538.833,27.5 541.167,27.5 543.5,27.5C 543.5,24.8333 543.5,22.1667 543.5,19.5C 546.167,19.5 548.833,19.5 551.5,19.5C 551.5,16.5 551.5,13.5 551.5,10.5 Z"/></g>
</svg>
